# xmcd
#
# Track frame offsets: 
#        150
#        13674
#        26657
#        37849
#        49858
#        62597
#        76925
#        90327
#        102050
#        113045
#        125109
#        138100
#        150247
#        161845
#        171534
#        181559
#        191514
#        203969
#        215904
#        227606
#
# Disc length: 3179 seconds
#
# Revision: 1
# Processed by: cddbd v1.5.2PL0 Copyright (c) Steve Scherf et al.
# Submitted via: ExactAudioCopyFreeDBPlugin 1.0
#
DISCID=000c6914
DTITLE=The Staple Singers - Faith and Grace:  A Family Journey, 1953-197
DTITLE=6
DYEAR=2015
DGENRE=Gospel
TTITLE0=It Rained Children
TTITLE1=I Just Can't Keep It to Myself
TTITLE2=Each Day
TTITLE3=God's Wonderful Love
TTITLE4=If I Could Hear My Mother Play
TTITLE5=I've Got a New Home
TTITLE6=Uncloudy Day
TTITLE7=Come on Up in Glory
TTITLE8=I Know I Got Religion
TTITLE9=Swing Down Chariot
TTITLE10=I Had a Dream
TTITLE11=Help Me Jesus
TTITLE12=Low Is the Way
TTITLE13=This May Be the Last Time (alternate take)
TTITLE14=So Soon
TTITLE15=I'm So Glad
TTITLE16=Pray On
TTITLE17=Good News
TTITLE18=Downward Road
TTITLE19=Don't Drive Me Away
EXTD=
EXTT0=
EXTT1=
EXTT2=
EXTT3=
EXTT4=
EXTT5=
EXTT6=
EXTT7=
EXTT8=
EXTT9=
EXTT10=
EXTT11=
EXTT12=
EXTT13=
EXTT14=
EXTT15=
EXTT16=
EXTT17=
EXTT18=
EXTT19=
PLAYORDER=
